<svg width="20" height="20" viewBox="0 0 20 20" fill="none" xmlns="http://www.w3.org/2000/svg">
<path d="M10 0C6.10754 0 2 2.71429 2 7.69048C2 13.5714 9.4539 18.6466 9.73118 18.8976C9.80698 18.9658 9.90349 19 10 19C10.0965 19 10.193 18.9658 10.2689 18.8976C10.5461 18.6466 18 13.5714 18 7.69048C18 2.71429 13.8925 0 10 0ZM10 11.4603C7.83776 11.4603 6.07842 9.76906 6.07842 7.69048C6.07842 5.61189 7.83779 3.92062 10 3.92062C12.1622 3.92062 13.9216 5.61193 13.9216 7.69048C13.9216 9.76903 12.1622 11.4603 10 11.4603Z" fill="#F4D99C"/>
</svg>
