<svg width="21" height="21" viewBox="0 0 21 21" fill="none" xmlns="http://www.w3.org/2000/svg">
<path d="M14.917 0H6.08092C5.23588 0 4.55322 0.685309 4.55322 1.53035V19.4716C4.55322 20.314 5.23588 21 6.08092 21H14.917C15.7607 21 16.446 20.3147 16.446 19.4716V1.53035C16.4454 0.685309 15.7607 0 14.917 0ZM15.3001 17.0147H5.69916V2.58151H15.3001V17.0147ZM12.5476 1.55288H8.451V1.10617H12.5483L12.5476 1.55288ZM14.3006 1.34875C14.3006 1.56481 14.1243 1.73978 13.9089 1.73978C13.6929 1.73978 13.5172 1.56415 13.5172 1.34875C13.5172 1.13334 13.6929 0.957709 13.9089 0.957709C14.125 0.957046 14.3006 1.13268 14.3006 1.34875ZM12.364 19.3696H8.63326V18.2217H12.364V19.3696Z" fill="white"/>
</svg>
