<svg width="190" height="70" viewBox="0 0 190 70" fill="none" xmlns="http://www.w3.org/2000/svg">
<path d="M45.9246 27.1935C51.597 24.8285 55.5788 22.0985 59.8978 18.9759C64.6972 15.5068 67.9722 10.2039 72.2219 6.17135C72.3836 6.01892 72.6376 6.0143 72.8086 6.15749C78.4717 10.8044 81.3541 8.93366 86.0519 4.79944C86.4492 4.44837 87.1467 4.20818 87.7795 4.83177C91.1839 8.19458 97.4799 9.98684 102.113 9.71431C108.409 9.34015 111.185 5.02578 114.973 0.531264C115.578 -0.184718 116.714 -0.175483 117.218 0.549738C119.491 3.82016 121.879 6.3284 125.228 8.5364C130.036 11.7052 131.829 9.43253 136.009 7.53403C136.134 7.47859 136.614 7.33078 136.882 7.50631C141.427 10.5088 143.834 11.987 148.966 14.9156C153.437 17.4654 168.177 23.7614 174.441 25.6184C174.931 25.7615 174.672 26.5884 174.182 26.4544C162.995 23.4381 141.996 15.1188 136.563 10.3933C136.429 10.2779 136.245 10.2501 136.088 10.3287C135.663 10.5319 134.956 10.8599 134.466 11.1278C134.281 11.2248 131.085 13.3358 129.376 12.1579C133.247 15.553 135.233 16.6016 138.716 18.6017C139.127 18.8373 138.693 19.5025 138.249 19.327C135.251 18.149 122.484 10.6474 118.627 6.47161C118.35 6.24988 117.814 6.43927 117.902 6.78109C118.243 8.08372 117.44 8.16224 117.232 8.08372C116.119 7.66337 115.652 8.20382 115.125 9.20619C114.945 9.54802 114.469 9.54802 114.215 9.50644C113.8 9.44177 113.564 9.24777 113.232 8.61493C112.802 7.23378 111.846 9.03066 111.804 9.32168C111.509 11.3634 110.825 13.7007 109.846 15.6223C109.573 16.1581 108.945 15.9364 109.01 15.5068C109.933 9.30781 105.005 12.629 100.284 12.1394C98.182 11.9177 94.385 10.6289 92.408 9.94065C89.9598 9.09071 87.4931 11.5574 87.4792 14.1765C87.4792 14.5414 87.0543 14.7447 86.7633 14.5183C84.8417 13.0078 84.0518 11.8715 81.853 10.7629C81.502 10.5873 81.1093 10.9292 81.2387 11.3033C81.2387 11.3079 81.2433 11.3172 81.2433 11.3218C81.331 11.5805 81.1694 11.8576 80.9015 11.9038C78.4533 12.3196 76.2268 10.8414 74.4576 9.68659C74.2497 9.54802 73.968 9.61268 73.8386 9.82979C73.6908 10.0792 73.5245 10.3702 73.386 10.6151C73.2751 10.8183 72.4482 15.1419 70.6883 12.9709C70.5313 12.7769 70.2356 12.7538 70.0462 12.9247C69.5658 13.3635 69.3395 13.5206 69.1132 14.389C69.0901 14.4721 60.5306 23.3595 46.1925 27.7478C45.5273 27.8679 45.6382 27.2443 45.9246 27.1935Z" fill="#F4D99C"/>
<path d="M63.9116 33.9608C64.2488 32.5611 65.3482 31.7574 66.5538 31.1107C68.711 29.9559 71.4733 29.5263 73.9123 29.1521C74.753 29.0228 75.5521 28.8981 76.2681 28.7549C76.7762 28.6533 77.312 28.5794 77.8294 28.5054C78.4992 28.4131 79.4738 28.2745 79.788 28.1036C79.5939 27.9696 79.1413 27.8126 78.9519 27.7479C78.781 27.6878 78.6424 27.637 78.5685 27.6001C78.2775 27.4523 77.3952 26.995 77.4414 26.2697C77.4922 25.4059 78.7579 24.9348 79.9773 24.4821C87.3173 21.7567 103.101 21.0916 107.767 20.9484C116.021 20.6989 118.017 20.8052 123.939 21.1054C125.26 21.1747 126.775 21.2532 128.599 21.3364C130.817 21.4426 137.639 21.3364 153.054 18.0752L153.285 18.8697C139.575 24.0202 132.932 24.8101 130.091 25.1519C129.38 25.235 128.706 25.3182 128.535 25.4198C128.535 25.4475 128.544 25.4937 128.567 25.5722C128.701 26.0249 128.627 26.4637 128.345 26.8379C126.932 28.7225 120.1 28.9258 112.926 28.8657C111.841 28.8565 110.986 28.8473 110.718 28.8796C109.767 28.9858 109.425 29.2353 109.42 29.4154C109.407 30.039 111.411 31.5172 114.271 32.1038C114.465 32.1454 114.317 32.9584 114.104 32.9122C111.36 32.3394 108.561 30.8151 108.594 29.397C108.603 28.8842 108.968 28.2375 110.631 28.0528C110.945 28.0204 111.739 28.0251 112.936 28.0343C116.94 28.0666 126.327 28.1498 127.685 26.339C127.81 26.1727 127.837 26.0111 127.777 25.8078C127.708 25.5815 127.643 25.2535 127.833 24.9671C128.105 24.556 128.66 24.4867 129.999 24.3296C132.415 24.0433 137.616 23.4197 147.686 19.9968C136.032 22.1863 130.526 22.2556 128.567 22.1632C126.743 22.0755 125.223 21.9969 123.902 21.9323C118.008 21.6274 116.017 21.5258 107.799 21.7752C103.166 21.9138 87.4928 22.5743 80.2961 25.2489C79.7371 25.4567 78.2959 25.9926 78.2775 26.3159C78.2775 26.3159 78.2959 26.5192 78.9565 26.861C79.0119 26.8887 79.1135 26.921 79.2336 26.9626C79.8757 27.1843 80.7488 27.4892 80.6841 28.1729C80.6102 28.9581 79.4923 29.1152 77.9495 29.3277C77.446 29.397 76.924 29.4709 76.439 29.5679C75.7045 29.7157 74.9008 29.8404 74.0462 29.9744C71.672 30.3393 68.9835 30.755 66.9511 31.8452C65.69 32.5196 64.9879 33.194 64.7385 34.067C64.5676 34.6306 63.7546 34.5982 63.9116 33.9608Z" fill="#F4D99C"/>
<path d="M0.697503 54.3129H4.75319V54.8995H0V46.6865H0.697503V54.3129Z" fill="#F5DEAA"/>
<path d="M8.86421 55.0103C8.34686 55.0103 7.87569 54.8809 7.45534 54.6269C7.03499 54.3728 6.71165 54.0125 6.47607 53.5598C6.24049 53.1071 6.125 52.5898 6.125 52.0216V51.7814C6.125 51.1948 6.24048 50.6682 6.46683 50.197C6.69317 49.7258 7.0119 49.3563 7.41839 49.0884C7.82488 48.8205 8.26371 48.6865 8.73949 48.6865C9.47857 48.6865 10.0698 48.9406 10.504 49.4441C10.9382 49.9522 11.1554 50.6405 11.1554 51.5181V51.8969H6.79941V52.0262C6.79941 52.7191 6.99804 53.2965 7.39529 53.7538C7.79255 54.2158 8.29143 54.4467 8.89193 54.4467C9.25223 54.4467 9.57095 54.382 9.84811 54.2481C10.1253 54.1188 10.3747 53.9063 10.601 53.6152L11.026 53.9386C10.5318 54.6546 9.81116 55.0103 8.86421 55.0103ZM8.74411 49.2593C8.23599 49.2593 7.8064 49.4441 7.45996 49.8182C7.11352 50.1924 6.90103 50.6913 6.82713 51.3195H10.4902V51.2456C10.4717 50.6589 10.3054 50.1832 9.98668 49.8136C9.66796 49.4441 9.25222 49.2593 8.74411 49.2593Z" fill="#F5DEAA"/>
<path d="M43.6467 31.3826V31.8768L41.6743 32.3711V53.3932L43.6467 53.8875V54.3817H34.2835V53.8875L36.2559 53.3932V35.489L28.5371 54.7051H27.5533L17.5341 35.489V52.899L20.1625 53.8829V54.3771H13.9219V53.8829L16.5502 52.899V32.3664L14.5778 31.8722V31.3779H18.6843C19.2987 31.3779 19.8345 31.4472 20.2918 31.5904C20.7537 31.7336 21.1556 31.923 21.5067 32.1678C21.8577 32.408 22.158 32.699 22.412 33.0362C22.6615 33.3781 22.8971 33.7522 23.1188 34.168L30.2786 47.8686L35.7663 34.168C35.9418 33.706 36.145 33.3088 36.376 32.9669C36.607 32.6297 36.8841 32.3387 37.2121 32.0985C37.54 31.8583 37.9465 31.6782 38.4269 31.5581C38.9073 31.438 39.4986 31.3779 40.2007 31.3779H43.6467V31.3826Z" fill="white"/>
<path d="M59.7443 42.5521C59.832 42.1133 59.9521 41.6929 60.1046 41.2864C60.257 40.88 60.4233 40.5243 60.5988 40.2194C60.7974 39.8683 61.0053 39.5496 61.2224 39.2678H62.2063V46.6586H61.2224C61.0053 46.3722 60.7974 46.0581 60.5988 45.7071C60.4233 45.4022 60.257 45.0511 60.1046 44.6539C59.9521 44.2612 59.832 43.8317 59.7443 43.3744H55.9657V53.5598H63.6845C63.6845 52.7052 63.7953 51.9615 64.0124 51.3241C64.2295 50.6912 64.4743 50.1508 64.733 49.7166C65.0379 49.2131 65.4028 48.7973 65.8186 48.4694H66.8025V54.382H48.5703V53.8877L50.5427 53.3935V32.3713L48.5703 31.8771V31.3828H66.1465V37.2954H65.1626C64.7469 36.9675 64.3866 36.5517 64.0771 36.0482C63.8138 35.6094 63.5736 35.0782 63.3565 34.4546C63.1394 33.831 63.0285 33.0781 63.0285 32.205H55.9657V42.5521H59.7443Z" fill="white"/>
<path d="M75.1824 53.8878V54.3821H69.1035V53.8878L71.7319 52.904L80.7671 31.0596H81.751L91.1142 53.3982L92.7586 53.8925V54.3867H88.8184C87.5897 54.3867 86.6289 54.1096 85.9268 53.5506C85.2247 52.9917 84.7212 52.3404 84.4163 51.5967L82.7395 47.6565H74.8868L72.7204 52.9132L75.1824 53.8878ZM75.2148 46.825H82.4069L78.7947 38.1871L75.2148 46.825Z" fill="white"/>
<path d="M113.619 32.861L110.99 31.8771V31.3828H117.231V31.8771L114.602 32.861V54.8716H113.619L98.3427 36.9675V52.8992L100.971 53.8831V54.3774H94.7305V53.8831L97.3588 52.8992V32.533L95.0584 31.8771V31.3828H98.509C99.1649 31.3828 99.7377 31.4521 100.218 31.5953C100.699 31.7385 101.123 31.9233 101.484 32.1542C101.844 32.3852 102.158 32.6346 102.421 32.9118C102.685 33.1843 102.916 33.443 103.11 33.6832L113.623 46.0027V32.861H113.619Z" fill="white"/>
<path d="M129.713 31.3826C133.653 31.3826 136.665 32.3942 138.748 34.422C140.826 36.4499 141.87 39.2676 141.87 42.8798C141.87 46.4921 140.831 49.3144 138.748 51.3377C136.669 53.3655 133.657 54.3771 129.713 54.3771H121.338V53.8829L123.31 53.3886V32.3664L121.338 31.8722V31.3779H129.713V31.3826ZM128.729 32.2048V53.5595H129.713C130.655 53.5595 131.519 53.3794 132.309 53.0191C133.098 52.6588 133.773 52.0629 134.327 51.2268C134.886 50.3953 135.325 49.3006 135.639 47.9425C135.953 46.5845 136.115 44.8984 136.115 42.8845C136.115 40.8705 135.958 39.1844 135.639 37.8264C135.32 36.4683 134.886 35.3736 134.327 34.5421C133.768 33.7106 133.094 33.1148 132.309 32.7498C131.523 32.3849 130.655 32.2094 129.713 32.2094H128.729V32.2048Z" fill="white"/>
<path d="M157.963 43.8686C158.707 43.8917 159.418 44.0118 160.097 44.2289C160.666 44.4044 161.248 44.6954 161.839 45.0973C162.43 45.4992 162.892 46.0766 163.22 46.8203L166.176 53.3889L167.821 53.8831V54.3774H163.22C162.236 54.3774 161.423 54.1187 160.79 53.606C160.153 53.0932 159.649 52.4188 159.28 51.5874L155.996 44.1966H153.861V53.3935L156.162 53.8877V54.382H146.471V53.8877L148.443 53.3935V32.3713L146.471 31.8771V31.3828H155.178C157.15 31.3828 158.804 31.5399 160.139 31.8586C161.474 32.1773 162.555 32.6161 163.372 33.1705C164.195 33.7294 164.786 34.4038 165.146 35.1891C165.507 35.979 165.687 36.8427 165.687 37.7851C165.687 38.5288 165.576 39.1801 165.359 39.739C165.142 40.2979 164.851 40.7922 164.49 41.2172C164.13 41.6421 163.714 42.0024 163.243 42.2842C162.772 42.5706 162.296 42.797 161.816 42.9725C160.675 43.4113 159.395 43.6515 157.973 43.6977V43.8686H157.963ZM155.173 43.3744C156.661 43.3744 157.857 42.8986 158.753 41.947C159.649 40.9954 160.102 39.6097 160.102 37.7897C160.102 35.9743 159.654 34.5886 158.753 33.6324C157.857 32.6808 156.661 32.205 155.173 32.205H153.861V43.3744H155.173Z" fill="white"/>
<path d="M182.275 42.5521C182.362 42.1133 182.482 41.6929 182.635 41.2864C182.787 40.88 182.954 40.5243 183.129 40.2194C183.328 39.8683 183.536 39.5496 183.753 39.2678H184.737V46.6586H183.753C183.536 46.3722 183.328 46.0581 183.129 45.7071C182.954 45.4022 182.787 45.0511 182.635 44.6539C182.482 44.2612 182.362 43.8317 182.275 43.3744H178.496V53.5598H186.215C186.215 52.7052 186.326 51.9615 186.543 51.3241C186.76 50.6912 187.005 50.1508 187.263 49.7166C187.568 49.2131 187.933 48.7973 188.349 48.4694H189.333V54.382H171.101V53.8877L173.073 53.3935V32.3713L171.101 31.8771V31.3828H188.677V37.2954H187.693C187.277 36.9675 186.917 36.5517 186.607 36.0482C186.344 35.6094 186.104 35.0782 185.882 34.4546C185.665 33.831 185.554 33.0781 185.554 32.205H178.491V42.5521H182.275Z" fill="white"/>
<path d="M103.785 66.2679C104.568 66.2679 105.203 65.6329 105.203 64.8498C105.203 64.0666 104.568 63.4316 103.785 63.4316C103.002 63.4316 102.367 64.0666 102.367 64.8498C102.367 65.6329 103.002 66.2679 103.785 66.2679Z" fill="white"/>
<path d="M136.461 66.2679C137.244 66.2679 137.879 65.6329 137.879 64.8498C137.879 64.0666 137.244 63.4316 136.461 63.4316C135.678 63.4316 135.043 64.0666 135.043 64.8498C135.043 65.6329 135.678 66.2679 136.461 66.2679Z" fill="white"/>
<path d="M28.9947 67.6585C28.9254 67.4644 28.8838 67.1827 28.8653 66.8085C28.6298 67.118 28.3249 67.3536 27.96 67.5245C27.595 67.6908 27.2024 67.7739 26.7959 67.7739C26.2093 67.7739 25.7335 67.6122 25.3732 67.2843C25.0083 66.9563 24.8281 66.5452 24.8281 66.0417C24.8281 65.4458 25.0776 64.9793 25.5718 64.6328C26.0661 64.2864 26.7544 64.1155 27.6412 64.1155H28.8653V63.4226C28.8653 62.9838 28.7314 62.6419 28.4635 62.3925C28.1956 62.1431 27.8029 62.0184 27.2856 62.0184C26.8144 62.0184 26.4264 62.1385 26.1169 62.3787C25.8074 62.6189 25.655 62.9099 25.655 63.2471L24.9759 63.2424C24.9759 62.7574 25.2023 62.3371 25.655 61.9814C26.1077 61.6257 26.662 61.4502 27.3179 61.4502C27.9969 61.4502 28.5374 61.6211 28.93 61.9629C29.3226 62.3047 29.5259 62.7759 29.5351 63.3857V66.2727C29.5351 66.8639 29.5952 67.3074 29.7199 67.5984V67.6677H28.9947V67.6585ZM26.8745 67.1734C27.3271 67.1734 27.729 67.0626 28.0847 66.8455C28.4404 66.6284 28.699 66.3373 28.8607 65.9724V64.6282H27.6551C26.9807 64.6375 26.4541 64.7576 26.0753 64.9978C25.6965 65.238 25.5072 65.5659 25.5072 65.9817C25.5072 66.3235 25.6319 66.6099 25.8859 66.8316C26.14 67.0533 26.468 67.1734 26.8745 67.1734Z" fill="#F5DEAA"/>
<path d="M37.9744 64.67C37.9744 65.6216 37.762 66.3791 37.3416 66.9334C36.9213 67.4923 36.3577 67.7695 35.6463 67.7695C34.8103 67.7695 34.1728 67.4785 33.7294 66.8872V70.0006H33.0596V61.5474H33.6878L33.7201 62.4112C34.1589 61.7599 34.7964 61.4365 35.6325 61.4365C36.3623 61.4365 36.9351 61.7137 37.3508 62.268C37.7666 62.8223 37.9744 63.5891 37.9744 64.5684V64.67ZM37.2954 64.5499C37.2954 63.7692 37.1337 63.1549 36.815 62.7068C36.4963 62.2541 36.0482 62.0278 35.48 62.0278C35.0643 62.0278 34.7086 62.1294 34.413 62.328C34.1174 62.5267 33.8864 62.8177 33.7294 63.1965V66.125C33.891 66.4761 34.122 66.744 34.4223 66.9242C34.7225 67.1089 35.0782 67.2013 35.4893 67.2013C36.0575 67.2013 36.5009 66.975 36.8196 66.5223C37.1384 66.0696 37.2954 65.4137 37.2954 64.5499Z" fill="#F5DEAA"/>
<path d="M45.0562 67.6585C44.9869 67.4644 44.9453 67.1827 44.9269 66.8085C44.6913 67.118 44.3864 67.3536 44.0215 67.5245C43.6566 67.6908 43.2639 67.7739 42.8574 67.7739C42.2708 67.7739 41.795 67.6122 41.4347 67.2843C41.0698 66.9563 40.8896 66.5452 40.8896 66.0417C40.8896 65.4458 41.1391 64.9793 41.6333 64.6328C42.1276 64.2864 42.8159 64.1155 43.7028 64.1155H44.9269V63.4226C44.9269 62.9838 44.7929 62.6419 44.525 62.3925C44.2571 62.1431 43.8644 62.0184 43.3471 62.0184C42.8759 62.0184 42.4879 62.1385 42.1784 62.3787C41.8689 62.6189 41.7165 62.9099 41.7165 63.2471L41.0375 63.2424C41.0375 62.7574 41.2638 62.3371 41.7165 61.9814C42.1692 61.6257 42.7235 61.4502 43.3794 61.4502C44.0584 61.4502 44.5989 61.6211 44.9915 61.9629C45.3842 62.3047 45.5874 62.7759 45.5967 63.3857V66.2727C45.5967 66.8639 45.6567 67.3074 45.7814 67.5984V67.6677H45.0562V67.6585ZM42.936 67.1734C43.3887 67.1734 43.7905 67.0626 44.1462 66.8455C44.5019 66.6284 44.7606 66.3373 44.9222 65.9724V64.6282H43.7166C43.0422 64.6375 42.5156 64.7576 42.1368 64.9978C41.7581 65.238 41.5687 65.5659 41.5687 65.9817C41.5687 66.3235 41.6934 66.6099 41.9474 66.8316C42.2015 67.0533 42.5295 67.1734 42.936 67.1734Z" fill="#F5DEAA"/>
<path d="M51.9427 62.1287C51.7995 62.101 51.6471 62.0871 51.4854 62.0871C51.0651 62.0871 50.7094 62.2026 50.4184 62.4382C50.1274 62.6738 49.9195 63.0156 49.7948 63.4637V67.6579H49.125V61.5513H49.7855L49.7948 62.5213C50.1505 61.8007 50.7279 61.4404 51.5178 61.4404C51.7072 61.4404 51.855 61.4635 51.9612 61.5143L51.9427 62.1287Z" fill="#F5DEAA"/>
<path d="M56.0772 59.9902V61.5515H57.3428V62.1058H56.0772V66.18C56.0772 66.5172 56.1372 66.7713 56.2619 66.9376C56.382 67.1039 56.5899 67.187 56.8763 67.187C56.9871 67.187 57.1719 67.1685 57.4214 67.1316L57.4491 67.6813C57.2735 67.7459 57.0333 67.7783 56.7285 67.7783C56.2665 67.7783 55.9293 67.6443 55.7169 67.3764C55.5044 67.1085 55.4027 66.7112 55.4027 66.1892V62.1151H54.2803V61.5608H55.4027V59.9995H56.0772V59.9902Z" fill="#F5DEAA"/>
<path d="M61.0895 61.5562L61.1126 62.5493C61.339 62.1798 61.6207 61.9026 61.9579 61.7225C62.2951 61.5377 62.6739 61.4453 63.085 61.4453C64.0458 61.4453 64.6602 61.838 64.9189 62.6325C65.136 62.2537 65.427 61.9581 65.7919 61.7548C66.1568 61.5516 66.5587 61.4453 66.9975 61.4453C68.3048 61.4453 68.9746 62.1613 69.0023 63.5886V67.6628H68.3232V63.6395C68.3186 63.0944 68.2032 62.6879 67.9722 62.4246C67.7412 62.1613 67.3625 62.032 66.8405 62.032C66.3555 62.0412 65.9443 62.1983 65.6118 62.5031C65.2792 62.808 65.0898 63.1821 65.0528 63.621V67.6628H64.3738V63.5886C64.3692 63.0667 64.2491 62.674 64.0043 62.4154C63.7594 62.1567 63.3899 62.0273 62.8864 62.0273C62.4614 62.0273 62.0965 62.1474 61.7917 62.3923C61.4868 62.6371 61.2604 62.9974 61.1126 63.4732V67.6582H60.4336V61.5516H61.0895V61.5562Z" fill="#F5DEAA"/>
<path d="M74.8085 67.7737C74.2912 67.7737 73.82 67.6443 73.3997 67.3903C72.9793 67.1362 72.656 66.7759 72.4204 66.3232C72.1894 65.8659 72.0693 65.3532 72.0693 64.785V64.5402C72.0693 63.9536 72.1848 63.427 72.4112 62.9558C72.6375 62.4846 72.9562 62.1151 73.3627 61.8472C73.7692 61.5793 74.208 61.4453 74.6838 61.4453C75.4229 61.4453 76.0142 61.6994 76.4484 62.2029C76.8826 62.711 77.0997 63.3993 77.0997 64.2769V64.6557H72.7437V64.785C72.7437 65.4779 72.9424 66.0553 73.3396 66.5126C73.7369 66.9745 74.2358 67.2055 74.8363 67.2055C75.1966 67.2055 75.5153 67.1408 75.7924 67.0069C76.0696 66.8729 76.319 66.6651 76.5454 66.374L76.9703 66.6974C76.4761 67.4134 75.7555 67.7737 74.8085 67.7737ZM74.6884 62.0181C74.1803 62.0181 73.7507 62.2029 73.4043 62.577C73.0578 62.9512 72.8454 63.4501 72.7715 64.0783H76.4345V64.0044C76.416 63.4177 76.2497 62.9419 75.931 62.5724C75.6123 62.2029 75.1966 62.0181 74.6884 62.0181Z" fill="#F5DEAA"/>
<path d="M80.7898 61.5562L80.8129 62.6001C81.0439 62.226 81.3302 61.9349 81.6721 61.7409C82.0139 61.5423 82.3927 61.4453 82.8084 61.4453C83.4643 61.4453 83.9494 61.6301 84.2681 61.9996C84.5868 62.3692 84.7485 62.9235 84.7531 63.6579V67.6628H84.0833V63.6533C84.0787 63.1082 83.9632 62.7017 83.7369 62.4338C83.5105 62.1659 83.1456 62.032 82.6467 62.032C82.231 62.032 81.8615 62.1613 81.5381 62.4246C81.2148 62.6879 80.9792 63.039 80.8221 63.4824V67.6628H80.1523V61.5562H80.7898Z" fill="#F5DEAA"/>
<path d="M89.2754 59.9902V61.5515H90.5411V62.1058H89.2754V66.18C89.2754 66.5172 89.3355 66.7713 89.4602 66.9376C89.5803 67.1039 89.7881 67.187 90.0745 67.187C90.1854 67.187 90.3702 67.1685 90.6196 67.1316L90.6473 67.6813C90.4718 67.7459 90.2316 67.7783 89.9267 67.7783C89.4648 67.7783 89.1276 67.6443 88.9151 67.3764C88.7026 67.1085 88.601 66.7112 88.601 66.1892V62.1151H87.4785V61.5608H88.601V59.9995H89.2754V59.9902Z" fill="#F5DEAA"/>
<path d="M97.3317 66.1059C97.3317 65.7687 97.1978 65.5007 96.9299 65.2975C96.662 65.0943 96.2555 64.9372 95.715 64.8217C95.1746 64.7062 94.7542 64.5769 94.4539 64.4291C94.1537 64.2813 93.932 64.1011 93.7888 63.884C93.6456 63.6715 93.5717 63.4082 93.5717 63.1034C93.5717 62.623 93.7749 62.2257 94.1768 61.9116C94.5787 61.5975 95.096 61.4404 95.7242 61.4404C96.4033 61.4404 96.953 61.6067 97.3641 61.9439C97.7752 62.2811 97.9831 62.72 97.9831 63.2604H97.304C97.304 62.9047 97.1562 62.6045 96.856 62.3689C96.5557 62.1333 96.1815 62.0132 95.7242 62.0132C95.2808 62.0132 94.9251 62.1102 94.6572 62.3088C94.3893 62.5075 94.2553 62.7615 94.2553 63.0803C94.2553 63.3851 94.3662 63.6207 94.5925 63.787C94.8142 63.9533 95.2254 64.1057 95.8166 64.2489C96.4079 64.3875 96.8513 64.5353 97.147 64.6924C97.4426 64.8494 97.6597 65.0388 97.8029 65.2605C97.9461 65.4823 98.0154 65.7502 98.0154 66.0689C98.0154 66.5863 97.8075 66.9974 97.3918 67.3069C96.9761 67.6164 96.431 67.7688 95.7658 67.7688C95.0544 67.7688 94.477 67.5979 94.0382 67.2514C93.5994 66.905 93.373 66.4708 93.373 65.9442H94.0521C94.0798 66.3414 94.2461 66.6463 94.5509 66.868C94.8558 67.0898 95.2623 67.196 95.7658 67.196C96.237 67.196 96.6158 67.0944 96.9068 66.8865C97.1839 66.6833 97.3317 66.4246 97.3317 66.1059Z" fill="#F5DEAA"/>
<path d="M114.003 66.1059C114.003 65.7687 113.869 65.5007 113.601 65.2975C113.333 65.0943 112.926 64.9372 112.386 64.8217C111.845 64.7062 111.425 64.5769 111.125 64.4291C110.825 64.2813 110.603 64.1011 110.46 63.884C110.316 63.6715 110.243 63.4082 110.243 63.1034C110.243 62.623 110.446 62.2257 110.848 61.9116C111.25 61.5975 111.767 61.4404 112.395 61.4404C113.074 61.4404 113.624 61.6067 114.035 61.9439C114.446 62.2811 114.654 62.72 114.654 63.2604H113.975C113.975 62.9047 113.827 62.6045 113.527 62.3689C113.227 62.1333 112.852 62.0132 112.395 62.0132C111.952 62.0132 111.596 62.1102 111.328 62.3088C111.06 62.5075 110.926 62.7615 110.926 63.0803C110.926 63.3851 111.037 63.6207 111.263 63.787C111.485 63.9533 111.896 64.1057 112.488 64.2489C113.079 64.3875 113.522 64.5353 113.818 64.6924C114.114 64.8494 114.331 65.0388 114.474 65.2605C114.617 65.4823 114.686 65.7502 114.686 66.0689C114.686 66.5863 114.478 66.9974 114.063 67.3069C113.647 67.6164 113.102 67.7688 112.437 67.7688C111.725 67.7688 111.148 67.5979 110.709 67.2514C110.27 66.905 110.044 66.4708 110.044 65.9442H110.723C110.751 66.3414 110.917 66.6463 111.222 66.868C111.527 67.0898 111.933 67.196 112.437 67.196C112.908 67.196 113.287 67.0944 113.578 66.8865C113.855 66.6833 114.003 66.4246 114.003 66.1059Z" fill="#F5DEAA"/>
<path d="M122.835 64.67C122.835 65.6216 122.622 66.3791 122.202 66.9334C121.782 67.4923 121.218 67.7695 120.507 67.7695C119.671 67.7695 119.033 67.4785 118.59 66.8872V70.0006H117.92V61.5474H118.548L118.58 62.4112C119.019 61.7599 119.657 61.4365 120.493 61.4365C121.223 61.4365 121.795 61.7137 122.211 62.268C122.627 62.8223 122.835 63.5891 122.835 64.5684V64.67ZM122.16 64.5499C122.16 63.7692 121.999 63.1549 121.68 62.7068C121.361 62.2541 120.913 62.0278 120.345 62.0278C119.929 62.0278 119.574 62.1294 119.278 62.328C118.982 62.5267 118.751 62.8177 118.594 63.1965V66.125C118.756 66.4761 118.987 66.744 119.287 66.9242C119.587 67.1089 119.943 67.2013 120.354 67.2013C120.922 67.2013 121.366 66.975 121.685 66.5223C121.999 66.0696 122.16 65.4137 122.16 64.5499Z" fill="#F5DEAA"/>
<path d="M129.92 67.6585C129.851 67.4644 129.81 67.1827 129.791 66.8085C129.556 67.118 129.251 67.3536 128.886 67.5245C128.521 67.6908 128.128 67.7739 127.722 67.7739C127.135 67.7739 126.659 67.6122 126.299 67.2843C125.934 66.9563 125.754 66.5452 125.754 66.0417C125.754 65.4458 126.003 64.9793 126.498 64.6328C126.992 64.2864 127.68 64.1155 128.567 64.1155H129.791V63.4226C129.791 62.9838 129.657 62.6419 129.389 62.3925C129.121 62.1431 128.729 62.0184 128.211 62.0184C127.74 62.0184 127.352 62.1385 127.043 62.3787C126.733 62.6189 126.581 62.9099 126.581 63.2471L125.902 63.2424C125.902 62.7574 126.128 62.3371 126.581 61.9814C127.033 61.6257 127.588 61.4502 128.244 61.4502C128.923 61.4502 129.463 61.6211 129.856 61.9629C130.248 62.3047 130.452 62.7759 130.461 63.3857V66.2727C130.461 66.8639 130.521 67.3074 130.646 67.5984V67.6677H129.92V67.6585ZM127.796 67.1734C128.248 67.1734 128.65 67.0626 129.006 66.8455C129.362 66.6284 129.62 66.3373 129.782 65.9724V64.6282H128.576C127.902 64.6375 127.375 64.7576 126.996 64.9978C126.618 65.238 126.428 65.5659 126.428 65.9817C126.428 66.3235 126.553 66.6099 126.807 66.8316C127.061 67.0533 127.389 67.1734 127.796 67.1734Z" fill="#F5DEAA"/>
<path d="M145.894 62.1287C145.751 62.101 145.598 62.0871 145.437 62.0871C145.016 62.0871 144.661 62.2026 144.37 62.4382C144.079 62.6738 143.871 63.0156 143.746 63.4637V67.6579H143.076V61.5513H143.737L143.746 62.5213C144.102 61.8007 144.679 61.4404 145.469 61.4404C145.658 61.4404 145.806 61.4635 145.912 61.5143L145.894 62.1287Z" fill="#F5DEAA"/>
<path d="M150.952 67.7737C150.435 67.7737 149.964 67.6443 149.543 67.3903C149.123 67.1362 148.8 66.7759 148.564 66.3232C148.333 65.8659 148.213 65.3532 148.213 64.785V64.5402C148.213 63.9536 148.328 63.427 148.555 62.9558C148.781 62.4846 149.1 62.1151 149.506 61.8472C149.913 61.5793 150.352 61.4453 150.827 61.4453C151.566 61.4453 152.158 61.6994 152.592 62.2029C153.026 62.711 153.243 63.3993 153.243 64.2769V64.6557H148.887V64.785C148.887 65.4779 149.086 66.0553 149.483 66.5126C149.88 66.9745 150.379 67.2055 150.98 67.2055C151.34 67.2055 151.659 67.1408 151.936 67.0069C152.213 66.8729 152.463 66.6651 152.689 66.374L153.114 66.6974C152.615 67.4134 151.894 67.7737 150.952 67.7737ZM150.827 62.0181C150.319 62.0181 149.89 62.2029 149.543 62.577C149.197 62.9512 148.984 63.4501 148.91 64.0783H152.573V64.0044C152.555 63.4177 152.389 62.9419 152.07 62.5724C151.751 62.2029 151.34 62.0181 150.827 62.0181Z" fill="#F5DEAA"/>
<path d="M159.945 66.1059C159.945 65.7687 159.811 65.5007 159.543 65.2975C159.275 65.0943 158.869 64.9372 158.328 64.8217C157.788 64.7062 157.367 64.5769 157.067 64.4291C156.767 64.2813 156.545 64.1011 156.402 63.884C156.259 63.6715 156.185 63.4082 156.185 63.1034C156.185 62.623 156.388 62.2257 156.79 61.9116C157.192 61.5975 157.709 61.4404 158.338 61.4404C159.017 61.4404 159.566 61.6067 159.977 61.9439C160.388 62.2811 160.596 62.72 160.596 63.2604H159.917C159.917 62.9047 159.77 62.6045 159.469 62.3689C159.169 62.1333 158.795 62.0132 158.338 62.0132C157.894 62.0132 157.538 62.1102 157.27 62.3088C157.003 62.5075 156.869 62.7615 156.869 63.0803C156.869 63.3851 156.979 63.6207 157.206 63.787C157.428 63.9533 157.839 64.1057 158.43 64.2489C159.021 64.3875 159.465 64.5353 159.76 64.6924C160.056 64.8494 160.273 65.0388 160.416 65.2605C160.559 65.4823 160.629 65.7502 160.629 66.0689C160.629 66.5863 160.421 66.9974 160.005 67.3069C159.589 67.6164 159.044 67.7688 158.379 67.7688C157.668 67.7688 157.09 67.5979 156.651 67.2514C156.213 66.905 155.986 66.4708 155.986 65.9442H156.665C156.693 66.3414 156.859 66.6463 157.164 66.868C157.469 67.0898 157.876 67.196 158.379 67.196C158.85 67.196 159.229 67.0944 159.52 66.8865C159.802 66.6833 159.945 66.4246 159.945 66.1059Z" fill="#F5DEAA"/>
<path d="M163.502 64.5168C163.502 63.9302 163.617 63.4036 163.844 62.9324C164.07 62.4613 164.393 62.0964 164.809 61.8331C165.225 61.5698 165.696 61.4404 166.223 61.4404C167.036 61.4404 167.692 61.7268 168.2 62.295C168.703 62.8632 168.957 63.6207 168.957 64.5584V64.697C168.957 65.2883 168.842 65.8195 168.615 66.2906C168.389 66.7618 168.066 67.1267 167.655 67.3808C167.239 67.6348 166.768 67.7642 166.237 67.7642C165.428 67.7642 164.772 67.4778 164.264 66.9096C163.756 66.3414 163.507 65.5839 163.507 64.6462V64.5168H163.502ZM164.176 64.7016C164.176 65.4315 164.366 66.032 164.745 66.4985C165.123 66.965 165.618 67.2006 166.232 67.2006C166.842 67.2006 167.336 66.965 167.715 66.4985C168.093 66.032 168.283 65.413 168.283 64.6462V64.5168C168.283 64.0503 168.195 63.6253 168.024 63.2373C167.849 62.8493 167.608 62.549 167.294 62.3366C166.98 62.1241 166.625 62.0178 166.223 62.0178C165.622 62.0178 165.128 62.2534 164.749 62.7246C164.37 63.1957 164.181 63.8147 164.181 64.5769V64.7016H164.176Z" fill="#F5DEAA"/>
<path d="M174.898 62.1287C174.755 62.101 174.602 62.0871 174.441 62.0871C174.02 62.0871 173.664 62.2026 173.373 62.4382C173.082 62.6738 172.875 63.0156 172.75 63.4637V67.6579H172.08V61.5513H172.741L172.75 62.5213C173.106 61.8007 173.683 61.4404 174.473 61.4404C174.662 61.4404 174.81 61.4635 174.916 61.5143L174.898 62.1287Z" fill="#F5DEAA"/>
<path d="M179.027 59.9902V61.5515H180.293V62.1058H179.027V66.18C179.027 66.5172 179.087 66.7713 179.212 66.9376C179.332 67.1039 179.54 67.187 179.826 67.187C179.937 67.187 180.122 67.1685 180.372 67.1316L180.399 67.6813C180.224 67.7459 179.984 67.7783 179.679 67.7783C179.217 67.7783 178.88 67.6443 178.667 67.3764C178.455 67.1085 178.353 66.7112 178.353 66.1892V62.1151H177.23V61.5608H178.353V59.9995H179.027V59.9902Z" fill="#F5DEAA"/>
</svg>
