<svg width="190" height="70" viewBox="0 0 190 70" fill="none" xmlns="http://www.w3.org/2000/svg">
<path d="M45.9246 27.1935C51.597 24.8285 55.5788 22.0985 59.8978 18.9759C64.6972 15.5068 67.9722 10.2039 72.2219 6.17135C72.3836 6.01892 72.6376 6.0143 72.8086 6.15749C78.4717 10.8044 81.3541 8.93366 86.0519 4.79944C86.4492 4.44837 87.1467 4.20818 87.7795 4.83177C91.1839 8.19458 97.4799 9.98684 102.113 9.71431C108.409 9.34015 111.185 5.02578 114.973 0.531264C115.578 -0.184718 116.714 -0.175483 117.218 0.549738C119.491 3.82016 121.879 6.3284 125.228 8.5364C130.036 11.7052 131.829 9.43253 136.009 7.53403C136.134 7.47859 136.614 7.33078 136.882 7.50631C141.427 10.5088 143.834 11.987 148.966 14.9156C153.437 17.4654 168.177 23.7614 174.441 25.6184C174.931 25.7615 174.672 26.5884 174.182 26.4544C162.995 23.4381 141.996 15.1188 136.563 10.3933C136.429 10.2779 136.245 10.2501 136.088 10.3287C135.663 10.5319 134.956 10.8599 134.466 11.1278C134.281 11.2248 131.085 13.3358 129.376 12.1579C133.247 15.553 135.233 16.6016 138.716 18.6017C139.127 18.8373 138.693 19.5025 138.249 19.327C135.251 18.149 122.484 10.6474 118.627 6.47161C118.35 6.24988 117.814 6.43927 117.902 6.78109C118.243 8.08372 117.44 8.16224 117.232 8.08372C116.119 7.66337 115.652 8.20382 115.125 9.20619C114.945 9.54802 114.469 9.54802 114.215 9.50644C113.8 9.44177 113.564 9.24777 113.232 8.61493C112.802 7.23378 111.846 9.03066 111.804 9.32168C111.509 11.3634 110.825 13.7007 109.846 15.6223C109.573 16.1581 108.945 15.9364 109.01 15.5068C109.933 9.30781 105.005 12.629 100.284 12.1394C98.182 11.9177 94.385 10.6289 92.408 9.94065C89.9598 9.09071 87.4931 11.5574 87.4792 14.1765C87.4792 14.5414 87.0543 14.7447 86.7633 14.5183C84.8417 13.0078 84.0518 11.8715 81.853 10.7629C81.502 10.5873 81.1093 10.9292 81.2387 11.3033C81.2387 11.3079 81.2433 11.3172 81.2433 11.3218C81.331 11.5805 81.1694 11.8576 80.9015 11.9038C78.4533 12.3196 76.2268 10.8414 74.4576 9.68659C74.2497 9.54802 73.968 9.61268 73.8386 9.82979C73.6908 10.0792 73.5245 10.3702 73.386 10.6151C73.2751 10.8183 72.4482 15.1419 70.6883 12.9709C70.5313 12.7769 70.2356 12.7538 70.0462 12.9247C69.5658 13.3635 69.3395 13.5206 69.1132 14.389C69.0901 14.4721 60.5306 23.3595 46.1925 27.7478C45.5273 27.8679 45.6382 27.2443 45.9246 27.1935Z" fill="#F4D99C"/>
<path d="M63.9119 33.9607C64.2491 32.5611 65.3485 31.7573 66.5541 31.1106C68.7113 29.9558 71.4736 29.5262 73.9125 29.1521C74.7532 29.0227 75.5524 28.898 76.2683 28.7548C76.7765 28.6532 77.3123 28.5793 77.8296 28.5054C78.4994 28.413 79.4741 28.2744 79.7882 28.1035C79.5942 27.9696 79.1415 27.8125 78.9521 27.7478C78.7812 27.6878 78.6426 27.637 78.5687 27.6C78.2777 27.4522 77.3954 26.9949 77.4416 26.2697C77.4924 25.4059 78.7581 24.9347 79.9776 24.482C87.3176 21.7567 103.102 21.0915 107.767 20.9483C116.022 20.6989 118.017 20.8051 123.939 21.1054C125.26 21.1747 126.775 21.2532 128.6 21.3363C130.817 21.4426 137.64 21.3363 153.054 18.0751L153.285 18.8696C139.575 24.0201 132.933 24.81 130.092 25.1518C129.38 25.235 128.706 25.3181 128.535 25.4197C128.535 25.4474 128.544 25.4936 128.567 25.5722C128.701 26.0248 128.627 26.4637 128.346 26.8378C126.932 28.7225 120.1 28.9257 112.927 28.8657C111.841 28.8564 110.987 28.8472 110.719 28.8795C109.767 28.9858 109.425 29.2352 109.421 29.4154C109.407 30.039 111.412 31.5171 114.271 32.1038C114.465 32.1453 114.317 32.9583 114.105 32.9121C111.361 32.3394 108.561 30.815 108.594 29.3969C108.603 28.8842 108.968 28.2375 110.631 28.0527C110.945 28.0204 111.739 28.025 112.936 28.0342C116.941 28.0666 126.327 28.1497 127.685 26.339C127.81 26.1727 127.838 26.011 127.777 25.8077C127.708 25.5814 127.644 25.2534 127.833 24.967C128.105 24.5559 128.66 24.4866 129.999 24.3296C132.415 24.0432 137.616 23.4196 147.686 19.9967C136.032 22.1863 130.526 22.2555 128.567 22.1632C126.743 22.0754 125.223 21.9969 123.902 21.9322C118.008 21.6273 116.017 21.5257 107.799 21.7751C103.166 21.9137 87.4931 22.5743 80.2963 25.2488C79.7374 25.4567 78.2962 25.9925 78.2777 26.3159C78.2777 26.3159 78.2962 26.5191 78.9567 26.8609C79.0122 26.8886 79.1138 26.921 79.2339 26.9626C79.876 27.1843 80.749 27.4891 80.6843 28.1728C80.6104 28.9581 79.4926 29.1151 77.9497 29.3276C77.4462 29.3969 76.9243 29.4708 76.4392 29.5678C75.7048 29.7156 74.901 29.8403 74.0465 29.9743C71.6722 30.3392 68.9838 30.755 66.9513 31.8451C65.6903 32.5195 64.9882 33.1939 64.7387 34.0669C64.5678 34.6305 63.7548 34.5982 63.9119 33.9607Z" fill="#F4D99C"/>
<path d="M0.697503 54.3131H4.75319V54.8997H0V46.6867H0.697503V54.3131Z" fill="#F5DEAA"/>
<path d="M8.86421 55.0106C8.34686 55.0106 7.87569 54.8812 7.45534 54.6272C7.03499 54.3731 6.71165 54.0128 6.47607 53.5601C6.24049 53.1074 6.125 52.5901 6.125 52.0219V51.7817C6.125 51.1951 6.24048 50.6685 6.46683 50.1973C6.69317 49.7262 7.0119 49.3566 7.41839 49.0887C7.82488 48.8208 8.26371 48.6868 8.73949 48.6868C9.47857 48.6868 10.0698 48.9409 10.504 49.4444C10.9382 49.9525 11.1554 50.6408 11.1554 51.5184V51.8972H6.79941V52.0265C6.79941 52.7194 6.99804 53.2968 7.39529 53.7541C7.79255 54.2161 8.29143 54.447 8.89193 54.447C9.25223 54.447 9.57095 54.3824 9.84811 54.2484C10.1253 54.1191 10.3747 53.9066 10.601 53.6155L11.026 53.9389C10.5318 54.6549 9.81116 55.0106 8.86421 55.0106ZM8.74411 49.2596C8.23599 49.2596 7.8064 49.4444 7.45996 49.8185C7.11352 50.1927 6.90103 50.6916 6.82713 51.3198H10.4902V51.2459C10.4717 50.6592 10.3054 50.1835 9.98668 49.8139C9.66796 49.4444 9.25222 49.2596 8.74411 49.2596Z" fill="#F5DEAA"/>
<path d="M43.6472 31.3831V31.8774L41.6747 32.3716V53.3938L43.6472 53.888V54.3823H34.284V53.888L36.2564 53.3938V35.4896L28.5376 54.7057H27.5537L17.5346 35.4896V52.8995L20.163 53.8834V54.3777H13.9224V53.8834L16.5507 52.8995V32.367L14.5783 31.8728V31.3785H18.6848C19.2992 31.3785 19.835 31.4478 20.2923 31.591C20.7542 31.7342 21.1561 31.9236 21.5072 32.1684C21.8582 32.4086 22.1585 32.6996 22.4125 33.0368C22.662 33.3786 22.8975 33.7528 23.1193 34.1685L30.2791 47.8692L35.7668 34.1685C35.9423 33.7066 36.1455 33.3093 36.3765 32.9675C36.6074 32.6303 36.8846 32.3393 37.2126 32.0991C37.5405 31.8589 37.947 31.6787 38.4274 31.5586C38.9078 31.4385 39.4991 31.3785 40.2012 31.3785H43.6472V31.3831Z" fill="white"/>
<path d="M59.7452 42.5524C59.833 42.1136 59.9531 41.6933 60.1055 41.2868C60.258 40.8803 60.4242 40.5246 60.5998 40.2197C60.7984 39.8687 61.0063 39.5499 61.2234 39.2682H62.2073V46.6589H61.2234C61.0063 46.3725 60.7984 46.0584 60.5998 45.7074C60.4242 45.4025 60.258 45.0514 60.1055 44.6542C59.9531 44.2616 59.833 43.832 59.7452 43.3747H55.9667V53.5601H63.6854C63.6854 52.7055 63.7963 51.9618 64.0134 51.3244C64.2305 50.6915 64.4753 50.1511 64.734 49.7169C65.0389 49.2134 65.4038 48.7976 65.8195 48.4697H66.8034V54.3823H48.5713V53.888L50.5437 53.3938V32.3716L48.5713 31.8774V31.3831H66.1475V37.2957H65.1636C64.7479 36.9678 64.3876 36.552 64.0781 36.0485C63.8148 35.6097 63.5746 35.0785 63.3575 34.4549C63.1404 33.8313 63.0295 33.0784 63.0295 32.2053H55.9667V42.5524H59.7452Z" fill="white"/>
<path d="M75.1827 53.888V54.3823H69.1038V53.888L71.7321 52.9042L80.7673 31.0598H81.7512L91.1144 53.3984L92.7589 53.8927V54.3869H88.8187C87.59 54.3869 86.6292 54.1098 85.927 53.5508C85.2249 52.9919 84.7214 52.3406 84.4165 51.5969L82.7398 47.6567H74.8871L72.7206 52.9134L75.1827 53.888ZM75.215 46.8252H82.4072L78.7949 38.1873L75.215 46.8252Z" fill="white"/>
<path d="M113.619 32.8613L110.991 31.8774V31.3831H117.232V31.8774L114.603 32.8613V54.8719H113.619L98.3434 36.9678V52.8995L100.972 53.8834V54.3777H94.7312V53.8834L97.3595 52.8995V32.5333L95.0592 31.8774V31.3831H98.5097C99.1657 31.3831 99.7385 31.4524 100.219 31.5956C100.699 31.7388 101.124 31.9236 101.485 32.1545C101.845 32.3855 102.159 32.6349 102.422 32.9121C102.686 33.1846 102.916 33.4433 103.11 33.6835L113.624 46.003V32.8613H113.619Z" fill="white"/>
<path d="M129.713 31.3831C133.653 31.3831 136.665 32.3947 138.748 34.4226C140.827 36.4504 141.871 39.2682 141.871 42.8804C141.871 46.4926 140.831 49.315 138.748 51.3382C136.669 53.3661 133.658 54.3777 129.713 54.3777H121.338V53.8834L123.311 53.3892V32.367L121.338 31.8728V31.3785H129.713V31.3831ZM128.729 32.2053V53.5601H129.713C130.655 53.5601 131.519 53.3799 132.309 53.0196C133.099 52.6593 133.773 52.0635 134.327 51.2274C134.886 50.3959 135.325 49.3011 135.639 47.9431C135.953 46.585 136.115 44.899 136.115 42.885C136.115 40.871 135.958 39.185 135.639 37.827C135.321 36.4689 134.886 35.3741 134.327 34.5427C133.769 33.7112 133.094 33.1153 132.309 32.7504C131.524 32.3855 130.655 32.21 129.713 32.21H128.729V32.2053Z" fill="white"/>
<path d="M157.964 43.8689C158.708 43.892 159.419 44.0121 160.098 44.2292C160.666 44.4048 161.248 44.6958 161.84 45.0976C162.431 45.4995 162.893 46.0769 163.221 46.8206L166.177 53.3892L167.822 53.8834V54.3777H163.221C162.237 54.3777 161.424 54.119 160.791 53.6063C160.154 53.0935 159.65 52.4191 159.281 51.5877L155.996 44.1969H153.862V53.3938L156.163 53.888V54.3823H146.471V53.888L148.444 53.3938V32.3716L146.471 31.8774V31.3831H155.179C157.151 31.3831 158.805 31.5402 160.14 31.8589C161.475 32.1776 162.556 32.6165 163.373 33.1708C164.195 33.7297 164.787 34.4041 165.147 35.1894C165.507 35.9793 165.687 36.8431 165.687 37.7854C165.687 38.5291 165.577 39.1804 165.36 39.7393C165.142 40.2983 164.851 40.7925 164.491 41.2175C164.131 41.6424 163.715 42.0027 163.244 42.2845C162.773 42.5709 162.297 42.7973 161.817 42.9728C160.676 43.4116 159.396 43.6518 157.973 43.698V43.8689H157.964ZM155.174 43.3747C156.661 43.3747 157.858 42.8989 158.754 41.9473C159.65 40.9958 160.103 39.61 160.103 37.79C160.103 35.9746 159.655 34.5889 158.754 33.6327C157.858 32.6811 156.661 32.2053 155.174 32.2053H153.862V43.3747H155.174Z" fill="white"/>
<path d="M182.275 42.5524C182.363 42.1136 182.483 41.6933 182.636 41.2868C182.788 40.8803 182.954 40.5246 183.13 40.2197C183.328 39.8687 183.536 39.5499 183.753 39.2682H184.737V46.6589H183.753C183.536 46.3725 183.328 46.0584 183.13 45.7074C182.954 45.4025 182.788 45.0514 182.636 44.6542C182.483 44.2616 182.363 43.832 182.275 43.3747H178.497V53.5601H186.215C186.215 52.7055 186.326 51.9618 186.543 51.3244C186.761 50.6915 187.005 50.1511 187.264 49.7169C187.569 49.2134 187.934 48.7976 188.35 48.4697H189.333V54.3823H171.101V53.888L173.074 53.3938V32.3716L171.101 31.8774V31.3831H188.678V37.2957H187.694C187.278 36.9678 186.918 36.552 186.608 36.0485C186.345 35.6097 186.105 35.0785 185.883 34.4549C185.666 33.8313 185.555 33.0784 185.555 32.2053H178.492V42.5524H182.275Z" fill="white"/>
<path d="M103.785 66.2677C104.568 66.2677 105.203 65.6328 105.203 64.8496C105.203 64.0664 104.568 63.4314 103.785 63.4314C103.002 63.4314 102.367 64.0664 102.367 64.8496C102.367 65.6328 103.002 66.2677 103.785 66.2677Z" fill="white"/>
<path d="M136.462 66.2677C137.245 66.2677 137.88 65.6328 137.88 64.8496C137.88 64.0664 137.245 63.4314 136.462 63.4314C135.678 63.4314 135.043 64.0664 135.043 64.8496C135.043 65.6328 135.678 66.2677 136.462 66.2677Z" fill="white"/>
<path d="M28.9949 67.6581C28.9256 67.4641 28.8841 67.1823 28.8656 66.8081C28.63 67.1176 28.3251 67.3532 27.9602 67.5241C27.5953 67.6904 27.2027 67.7735 26.7962 67.7735C26.2095 67.7735 25.7337 67.6119 25.3734 67.2839C25.0085 66.9559 24.8284 66.5448 24.8284 66.0413C24.8284 65.4454 25.0778 64.9789 25.5721 64.6325C26.0663 64.286 26.7546 64.1151 27.6415 64.1151H28.8656V63.4222C28.8656 62.9834 28.7316 62.6416 28.4637 62.3921C28.1958 62.1427 27.8032 62.018 27.2858 62.018C26.8146 62.018 26.4266 62.1381 26.1171 62.3783C25.8076 62.6185 25.6552 62.9095 25.6552 63.2467L24.9762 63.2421C24.9762 62.757 25.2025 62.3367 25.6552 61.981C26.1079 61.6253 26.6622 61.4498 27.3181 61.4498C27.9972 61.4498 28.5376 61.6207 28.9302 61.9625C29.3229 62.3044 29.5261 62.7755 29.5354 63.3853V66.2723C29.5354 66.8636 29.5954 67.307 29.7201 67.598V67.6673H28.9949V67.6581ZM26.8747 67.173C27.3274 67.173 27.7293 67.0622 28.0849 66.8451C28.4406 66.628 28.6993 66.3369 28.861 65.972V64.6278H27.6553C26.9809 64.6371 26.4543 64.7572 26.0756 64.9974C25.6968 65.2376 25.5074 65.5655 25.5074 65.9813C25.5074 66.3231 25.6321 66.6095 25.8862 66.8312C26.1402 67.0529 26.4682 67.173 26.8747 67.173Z" fill="#F5DEAA"/>
<path d="M37.9747 64.6694C37.9747 65.621 37.7622 66.3785 37.3419 66.9328C36.9215 67.4918 36.358 67.7689 35.6466 67.7689C34.8105 67.7689 34.1731 67.4779 33.7296 66.8866V70H33.0598V61.5468H33.688L33.7204 62.4106C34.1592 61.7593 34.7967 61.4359 35.6327 61.4359C36.3626 61.4359 36.9354 61.7131 37.3511 62.2674C37.7668 62.8217 37.9747 63.5885 37.9747 64.5678V64.6694ZM37.2957 64.5493C37.2957 63.7687 37.134 63.1543 36.8153 62.7062C36.4965 62.2535 36.0485 62.0272 35.4803 62.0272C35.0646 62.0272 34.7089 62.1288 34.4132 62.3275C34.1176 62.5261 33.8867 62.8171 33.7296 63.1959V66.1245C33.8913 66.4755 34.1222 66.7434 34.4225 66.9236C34.7227 67.1084 35.0784 67.2007 35.4895 67.2007C36.0577 67.2007 36.5012 66.9744 36.8199 66.5217C37.1386 66.069 37.2957 65.4131 37.2957 64.5493Z" fill="#F5DEAA"/>
<path d="M45.056 67.6581C44.9867 67.4641 44.9451 67.1823 44.9266 66.8081C44.691 67.1176 44.3862 67.3532 44.0212 67.5241C43.6563 67.6904 43.2637 67.7735 42.8572 67.7735C42.2705 67.7735 41.7948 67.6119 41.4345 67.2839C41.0696 66.9559 40.8894 66.5448 40.8894 66.0413C40.8894 65.4454 41.1388 64.9789 41.6331 64.6325C42.1274 64.286 42.8156 64.1151 43.7025 64.1151H44.9266V63.4222C44.9266 62.9834 44.7927 62.6416 44.5247 62.3921C44.2568 62.1427 43.8642 62.018 43.3468 62.018C42.8757 62.018 42.4877 62.1381 42.1782 62.3783C41.8687 62.6185 41.7162 62.9095 41.7162 63.2467L41.0372 63.2421C41.0372 62.757 41.2636 62.3367 41.7162 61.981C42.1689 61.6253 42.7232 61.4498 43.3792 61.4498C44.0582 61.4498 44.5987 61.6207 44.9913 61.9625C45.3839 62.3044 45.5872 62.7755 45.5964 63.3853V66.2723C45.5964 66.8636 45.6565 67.307 45.7812 67.598V67.6673H45.056V67.6581ZM42.9357 67.173C43.3884 67.173 43.7903 67.0622 44.146 66.8451C44.5016 66.628 44.7603 66.3369 44.922 65.972V64.6278H43.7164C43.042 64.6371 42.5154 64.7572 42.1366 64.9974C41.7578 65.2376 41.5684 65.5655 41.5684 65.9813C41.5684 66.3231 41.6931 66.6095 41.9472 66.8312C42.2013 67.0529 42.5292 67.173 42.9357 67.173Z" fill="#F5DEAA"/>
<path d="M51.9435 62.1288C51.8003 62.1011 51.6478 62.0872 51.4862 62.0872C51.0658 62.0872 50.7101 62.2027 50.4191 62.4383C50.1281 62.6739 49.9202 63.0157 49.7955 63.4638V67.6581H49.1257V61.5514H49.7863L49.7955 62.5215C50.1512 61.8009 50.7286 61.4406 51.5185 61.4406C51.7079 61.4406 51.8557 61.4637 51.962 61.5145L51.9435 62.1288Z" fill="#F5DEAA"/>
<path d="M56.0777 59.9901V61.5514H57.3433V62.1057H56.0777V66.1799C56.0777 66.5171 56.1377 66.7712 56.2624 66.9374C56.3825 67.1037 56.5904 67.1869 56.8768 67.1869C56.9876 67.1869 57.1724 67.1684 57.4218 67.1315L57.4496 67.6812C57.274 67.7458 57.0338 67.7782 56.729 67.7782C56.267 67.7782 55.9298 67.6442 55.7174 67.3763C55.5049 67.1084 55.4032 66.7111 55.4032 66.1891V62.115H54.2808V61.5607H55.4032V59.9994H56.0777V59.9901Z" fill="#F5DEAA"/>
<path d="M61.0895 61.556L61.1126 62.5492C61.339 62.1796 61.6207 61.9025 61.9579 61.7223C62.2951 61.5376 62.6739 61.4452 63.085 61.4452C64.0458 61.4452 64.6602 61.8378 64.9189 62.6323C65.136 62.2535 65.427 61.9579 65.7919 61.7547C66.1568 61.5514 66.5587 61.4452 66.9975 61.4452C68.3048 61.4452 68.9746 62.1612 69.0023 63.5885V67.6627H68.3232V63.6393C68.3186 63.0942 68.2032 62.6878 67.9722 62.4245C67.7412 62.1612 67.3625 62.0318 66.8405 62.0318C66.3555 62.0411 65.9443 62.1981 65.6118 62.503C65.2792 62.8079 65.0898 63.182 65.0528 63.6208V67.6627H64.3738V63.5885C64.3692 63.0665 64.2491 62.6739 64.0043 62.4152C63.7594 62.1565 63.3899 62.0272 62.8864 62.0272C62.4614 62.0272 62.0965 62.1473 61.7917 62.3921C61.4868 62.6369 61.2604 62.9972 61.1126 63.473V67.6581H60.4336V61.5514H61.0895V61.556Z" fill="#F5DEAA"/>
<path d="M74.8085 67.7735C74.2912 67.7735 73.82 67.6442 73.3997 67.3901C72.9793 67.1361 72.656 66.7758 72.4204 66.3231C72.1894 65.8658 72.0693 65.3531 72.0693 64.7849V64.5401C72.0693 63.9534 72.1848 63.4268 72.4112 62.9557C72.6375 62.4845 72.9562 62.115 73.3627 61.8471C73.7692 61.5791 74.208 61.4452 74.6838 61.4452C75.4229 61.4452 76.0142 61.6992 76.4484 62.2027C76.8826 62.7108 77.0997 63.3991 77.0997 64.2768V64.6556H72.7437V64.7849C72.7437 65.4778 72.9424 66.0552 73.3396 66.5125C73.7369 66.9744 74.2358 67.2054 74.8363 67.2054C75.1966 67.2054 75.5153 67.1407 75.7924 67.0067C76.0696 66.8728 76.319 66.6649 76.5454 66.3739L76.9703 66.6973C76.4761 67.4132 75.7555 67.7735 74.8085 67.7735ZM74.6884 62.018C74.1803 62.018 73.7507 62.2027 73.4043 62.5769C73.0578 62.9511 72.8454 63.4499 72.7715 64.0782H76.4345V64.0042C76.416 63.4176 76.2497 62.9418 75.931 62.5723C75.6123 62.2027 75.1966 62.018 74.6884 62.018Z" fill="#F5DEAA"/>
<path d="M80.7905 61.556L80.8136 62.6C81.0446 62.2258 81.331 61.9348 81.6728 61.7408C82.0146 61.5422 82.3934 61.4452 82.8091 61.4452C83.4651 61.4452 83.9501 61.63 84.2688 61.9995C84.5875 62.369 84.7492 62.9233 84.7538 63.6578V67.6627H84.084V63.6532C84.0794 63.1081 83.9639 62.7016 83.7376 62.4337C83.5113 62.1658 83.1463 62.0318 82.6475 62.0318C82.2317 62.0318 81.8622 62.1612 81.5388 62.4245C81.2155 62.6878 80.9799 63.0388 80.8229 63.4823V67.6627H80.1531V61.556H80.7905Z" fill="#F5DEAA"/>
<path d="M89.2759 59.9901V61.5514H90.5416V62.1057H89.2759V66.1799C89.2759 66.5171 89.3359 66.7712 89.4607 66.9374C89.5808 67.1037 89.7886 67.1869 90.075 67.1869C90.1859 67.1869 90.3707 67.1684 90.6201 67.1315L90.6478 67.6812C90.4723 67.7458 90.2321 67.7782 89.9272 67.7782C89.4653 67.7782 89.1281 67.6442 88.9156 67.3763C88.7031 67.1084 88.6015 66.7111 88.6015 66.1891V62.115H87.479V61.5607H88.6015V59.9994H89.2759V59.9901Z" fill="#F5DEAA"/>
<path d="M97.332 66.106C97.332 65.7688 97.198 65.5009 96.9301 65.2976C96.6622 65.0944 96.2557 64.9373 95.7152 64.8218C95.1748 64.7064 94.7544 64.577 94.4542 64.4292C94.1539 64.2814 93.9322 64.1012 93.789 63.8841C93.6458 63.6717 93.5719 63.4084 93.5719 63.1035C93.5719 62.6231 93.7752 62.2258 94.177 61.9117C94.5789 61.5976 95.0963 61.4406 95.7245 61.4406C96.4035 61.4406 96.9532 61.6068 97.3643 61.9441C97.7754 62.2813 97.9833 62.7201 97.9833 63.2605H97.3043C97.3043 62.9049 97.1565 62.6046 96.8562 62.369C96.556 62.1334 96.1818 62.0134 95.7245 62.0134C95.281 62.0134 94.9254 62.1103 94.6574 62.309C94.3895 62.5076 94.2556 62.7617 94.2556 63.0804C94.2556 63.3853 94.3664 63.6208 94.5928 63.7871C94.8145 63.9534 95.2256 64.1059 95.8169 64.2491C96.4081 64.3876 96.8516 64.5354 97.1472 64.6925C97.4428 64.8496 97.6599 65.039 97.8031 65.2607C97.9463 65.4824 98.0156 65.7503 98.0156 66.069C98.0156 66.5864 97.8078 66.9975 97.392 67.307C96.9763 67.6165 96.4312 67.7689 95.7661 67.7689C95.0547 67.7689 94.4773 67.598 94.0385 67.2516C93.5996 66.9051 93.3733 66.4709 93.3733 65.9443H94.0523C94.08 66.3416 94.2463 66.6464 94.5512 66.8682C94.8561 67.0899 95.2626 67.1961 95.7661 67.1961C96.2372 67.1961 96.616 67.0945 96.907 66.8866C97.1842 66.6834 97.332 66.4247 97.332 66.106Z" fill="#F5DEAA"/>
<path d="M114.003 66.106C114.003 65.7688 113.869 65.5009 113.601 65.2976C113.333 65.0944 112.927 64.9373 112.386 64.8218C111.846 64.7064 111.425 64.577 111.125 64.4292C110.825 64.2814 110.603 64.1012 110.46 63.8841C110.317 63.6717 110.243 63.4084 110.243 63.1035C110.243 62.6231 110.446 62.2258 110.848 61.9117C111.25 61.5976 111.767 61.4406 112.395 61.4406C113.074 61.4406 113.624 61.6068 114.035 61.9441C114.446 62.2813 114.654 62.7201 114.654 63.2605H113.975C113.975 62.9049 113.827 62.6046 113.527 62.369C113.227 62.1334 112.853 62.0134 112.395 62.0134C111.952 62.0134 111.596 62.1103 111.328 62.309C111.06 62.5076 110.926 62.7617 110.926 63.0804C110.926 63.3853 111.037 63.6208 111.264 63.7871C111.485 63.9534 111.897 64.1059 112.488 64.2491C113.079 64.3876 113.522 64.5354 113.818 64.6925C114.114 64.8496 114.331 65.039 114.474 65.2607C114.617 65.4824 114.687 65.7503 114.687 66.069C114.687 66.5864 114.479 66.9975 114.063 67.307C113.647 67.6165 113.102 67.7689 112.437 67.7689C111.726 67.7689 111.148 67.598 110.709 67.2516C110.271 66.9051 110.044 66.4709 110.044 65.9443H110.723C110.751 66.3416 110.917 66.6464 111.222 66.8682C111.527 67.0899 111.933 67.1961 112.437 67.1961C112.908 67.1961 113.287 67.0945 113.578 66.8866C113.855 66.6834 114.003 66.4247 114.003 66.106Z" fill="#F5DEAA"/>
<path d="M122.835 64.6694C122.835 65.621 122.622 66.3785 122.202 66.9328C121.782 67.4918 121.218 67.7689 120.507 67.7689C119.671 67.7689 119.033 67.4779 118.59 66.8866V70H117.92V61.5468H118.548L118.58 62.4106C119.019 61.7593 119.657 61.4359 120.493 61.4359C121.223 61.4359 121.795 61.7131 122.211 62.2674C122.627 62.8217 122.835 63.5885 122.835 64.5678V64.6694ZM122.16 64.5493C122.16 63.7687 121.999 63.1543 121.68 62.7062C121.361 62.2535 120.913 62.0272 120.345 62.0272C119.929 62.0272 119.574 62.1288 119.278 62.3275C118.982 62.5261 118.751 62.8171 118.594 63.1959V66.1245C118.756 66.4755 118.987 66.7434 119.287 66.9236C119.587 67.1084 119.943 67.2007 120.354 67.2007C120.922 67.2007 121.366 66.9744 121.685 66.5217C121.999 66.069 122.16 65.4131 122.16 64.5493Z" fill="#F5DEAA"/>
<path d="M129.921 67.6581C129.851 67.4641 129.81 67.1823 129.791 66.8081C129.556 67.1176 129.251 67.3532 128.886 67.5241C128.521 67.6904 128.128 67.7735 127.722 67.7735C127.135 67.7735 126.66 67.6119 126.299 67.2839C125.934 66.9559 125.754 66.5448 125.754 66.0413C125.754 65.4454 126.004 64.9789 126.498 64.6325C126.992 64.286 127.68 64.1151 128.567 64.1151H129.791V63.4222C129.791 62.9834 129.657 62.6416 129.389 62.3921C129.122 62.1427 128.729 62.018 128.212 62.018C127.74 62.018 127.352 62.1381 127.043 62.3783C126.733 62.6185 126.581 62.9095 126.581 63.2467L125.902 63.2421C125.902 62.757 126.128 62.3367 126.581 61.981C127.034 61.6253 127.588 61.4498 128.244 61.4498C128.923 61.4498 129.463 61.6207 129.856 61.9625C130.249 62.3044 130.452 62.7755 130.461 63.3853V66.2723C130.461 66.8636 130.521 67.307 130.646 67.598V67.6673H129.921V67.6581ZM127.796 67.173C128.249 67.173 128.65 67.0622 129.006 66.8451C129.362 66.628 129.62 66.3369 129.782 65.972V64.6278H128.576C127.902 64.6371 127.376 64.7572 126.997 64.9974C126.618 65.2376 126.429 65.5655 126.429 65.9813C126.429 66.3231 126.553 66.6095 126.807 66.8312C127.061 67.0529 127.389 67.173 127.796 67.173Z" fill="#F5DEAA"/>
<path d="M145.894 62.1288C145.751 62.1011 145.599 62.0872 145.437 62.0872C145.017 62.0872 144.661 62.2027 144.37 62.4383C144.079 62.6739 143.871 63.0157 143.746 63.4638V67.6581H143.076V61.5514H143.737L143.746 62.5215C144.102 61.8009 144.679 61.4406 145.469 61.4406C145.659 61.4406 145.806 61.4637 145.913 61.5145L145.894 62.1288Z" fill="#F5DEAA"/>
<path d="M150.952 67.7735C150.435 67.7735 149.964 67.6442 149.543 67.3901C149.123 67.1361 148.8 66.7758 148.564 66.3231C148.333 65.8658 148.213 65.3531 148.213 64.7849V64.5401C148.213 63.9534 148.328 63.4268 148.555 62.9557C148.781 62.4845 149.1 62.115 149.506 61.8471C149.913 61.5791 150.352 61.4452 150.827 61.4452C151.566 61.4452 152.158 61.6992 152.592 62.2027C153.026 62.7108 153.243 63.3991 153.243 64.2768V64.6556H148.887V64.7849C148.887 65.4778 149.086 66.0552 149.483 66.5125C149.88 66.9744 150.379 67.2054 150.98 67.2054C151.34 67.2054 151.659 67.1407 151.936 67.0067C152.213 66.8728 152.463 66.6649 152.689 66.3739L153.114 66.6973C152.615 67.4132 151.894 67.7735 150.952 67.7735ZM150.827 62.018C150.319 62.018 149.89 62.2027 149.543 62.5769C149.197 62.9511 148.984 63.4499 148.91 64.0782H152.573V64.0042C152.555 63.4176 152.389 62.9418 152.07 62.5723C151.751 62.2027 151.34 62.018 150.827 62.018Z" fill="#F5DEAA"/>
<path d="M159.946 66.106C159.946 65.7688 159.812 65.5009 159.544 65.2976C159.276 65.0944 158.869 64.9373 158.329 64.8218C157.789 64.7064 157.368 64.577 157.068 64.4292C156.768 64.2814 156.546 64.1012 156.403 63.8841C156.26 63.6717 156.186 63.4084 156.186 63.1035C156.186 62.6231 156.389 62.2258 156.791 61.9117C157.193 61.5976 157.71 61.4406 158.338 61.4406C159.017 61.4406 159.567 61.6068 159.978 61.9441C160.389 62.2813 160.597 62.7201 160.597 63.2605H159.918C159.918 62.9049 159.77 62.6046 159.47 62.369C159.17 62.1334 158.796 62.0134 158.338 62.0134C157.895 62.0134 157.539 62.1103 157.271 62.309C157.003 62.5076 156.869 62.7617 156.869 63.0804C156.869 63.3853 156.98 63.6208 157.207 63.7871C157.428 63.9534 157.839 64.1059 158.431 64.2491C159.022 64.3876 159.465 64.5354 159.761 64.6925C160.057 64.8496 160.274 65.039 160.417 65.2607C160.56 65.4824 160.629 65.7503 160.629 66.069C160.629 66.5864 160.422 66.9975 160.006 67.307C159.59 67.6165 159.045 67.7689 158.38 67.7689C157.668 67.7689 157.091 67.598 156.652 67.2516C156.213 66.9051 155.987 66.4709 155.987 65.9443H156.666C156.694 66.3416 156.86 66.6464 157.165 66.8682C157.47 67.0899 157.876 67.1961 158.38 67.1961C158.851 67.1961 159.23 67.0945 159.521 66.8866C159.803 66.6834 159.946 66.4247 159.946 66.106Z" fill="#F5DEAA"/>
<path d="M163.503 64.517C163.503 63.9303 163.618 63.4037 163.845 62.9326C164.071 62.4614 164.394 62.0965 164.81 61.8332C165.226 61.5699 165.697 61.4406 166.223 61.4406C167.036 61.4406 167.692 61.727 168.2 62.2951C168.704 62.8633 168.958 63.6208 168.958 64.5585V64.6971C168.958 65.2884 168.843 65.8196 168.616 66.2908C168.39 66.7619 168.066 67.1268 167.655 67.3809C167.24 67.635 166.768 67.7643 166.237 67.7643C165.429 67.7643 164.773 67.4779 164.265 66.9097C163.757 66.3416 163.507 65.584 163.507 64.6463V64.517H163.503ZM164.177 64.7017C164.177 65.4316 164.366 66.0321 164.745 66.4986C165.124 66.9652 165.618 67.2007 166.233 67.2007C166.842 67.2007 167.337 66.9652 167.715 66.4986C168.094 66.0321 168.284 65.4131 168.284 64.6463V64.517C168.284 64.0504 168.196 63.6255 168.025 63.2374C167.849 62.8494 167.609 62.5492 167.295 62.3367C166.981 62.1242 166.625 62.018 166.223 62.018C165.623 62.018 165.129 62.2535 164.75 62.7247C164.371 63.1959 164.182 63.8148 164.182 64.577V64.7017H164.177Z" fill="#F5DEAA"/>
<path d="M174.898 62.1288C174.755 62.1011 174.603 62.0872 174.441 62.0872C174.021 62.0872 173.665 62.2027 173.374 62.4383C173.083 62.6739 172.875 63.0157 172.75 63.4638V67.6581H172.081V61.5514H172.741L172.75 62.5215C173.106 61.8009 173.683 61.4406 174.473 61.4406C174.663 61.4406 174.811 61.4637 174.917 61.5145L174.898 62.1288Z" fill="#F5DEAA"/>
<path d="M179.028 59.9901V61.5514H180.294V62.1057H179.028V66.1799C179.028 66.5171 179.088 66.7712 179.213 66.9374C179.333 67.1037 179.541 67.1869 179.827 67.1869C179.938 67.1869 180.123 67.1684 180.372 67.1315L180.4 67.6812C180.224 67.7458 179.984 67.7782 179.679 67.7782C179.217 67.7782 178.88 67.6442 178.668 67.3763C178.455 67.1084 178.353 66.7111 178.353 66.1891V62.115H177.231V61.5607H178.353V59.9994H179.028V59.9901Z" fill="#F5DEAA"/>
</svg>
